<?xml version="1.0" standalone="no"?>
<!DOCTYPE svg PUBLIC "-//W3C//DTD SVG 20010904//EN"
 "http://www.w3.org/TR/2001/REC-SVG-20010904/DTD/svg10.dtd">
<svg version="1.0" xmlns="http://www.w3.org/2000/svg"
 width="948.000000pt" height="948.000000pt" viewBox="0 0 948.000000 948.000000"
 preserveAspectRatio="xMidYMid meet">
<metadata>
Created by potrace 1.14, written by Peter Selinger 2001-2017
</metadata>
<g transform="translate(0.000000,948.000000) scale(0.100000,-0.100000)"
fill="#000000" stroke="none">
<path d="M30 7636 c-6 -6 -10 -1076 -10 -2875 l0 -2866 1272 1 c700 1 1307 4
1348 8 142 12 213 21 295 36 28 5 61 12 75 14 40 8 61 13 125 30 33 9 69 19
80 21 11 3 52 16 90 31 39 14 75 27 80 28 40 10 302 139 315 155 3 3 30 22 60
43 82 54 96 66 190 158 124 122 216 245 261 348 8 17 17 32 21 32 5 0 7 3 6 8
-1 7 2 15 40 103 18 40 56 161 67 212 2 10 6 26 9 35 3 9 8 35 11 57 3 23 8
52 11 65 17 83 23 331 11 470 -14 163 -62 353 -128 500 -36 82 -106 203 -120
208 -5 2 -9 9 -9 15 -1 30 -209 237 -238 237 -6 0 -12 3 -14 8 -12 27 -234
138 -353 177 -89 29 -249 66 -266 63 -6 -2 -14 3 -16 10 -3 7 -1 11 4 10 5 -2
46 18 91 45 77 45 206 159 242 216 8 13 20 29 25 35 73 82 194 369 219 521 3
17 8 46 11 65 21 114 21 406 1 540 -7 47 -26 157 -31 175 -41 174 -117 360
-195 476 -24 35 -47 66 -52 67 -4 2 -8 9 -8 15 0 15 -150 163 -210 209 -75 56
-225 145 -260 153 -3 1 -18 7 -35 14 -165 70 -360 111 -600 126 -33 2 -62 4
-65 5 -15 4 -131 1 -139 -4 -5 -4 -12 -3 -14 1 -6 10 -231 8 -246 -1 -6 -4
-11 -4 -11 1 0 10 -213 8 -229 -1 -6 -4 -11 -4 -11 1 0 10 -214 8 -229 -2 -6
-3 -11 -3 -11 2 0 9 -520 9 -544 0 -9 -4 -16 -3 -16 1 0 9 -214 7 -229 -3 -6
-3 -11 -3 -11 2 0 10 -213 8 -229 -1 -6 -4 -11 -4 -11 1 0 10 -214 8 -229 -2
-6 -3 -11 -3 -11 2 0 11 -169 10 -180 -1z m1924 -1150 c76 -10 186 -37 236
-58 62 -26 169 -99 176 -120 3 -10 9 -18 13 -18 18 0 81 -142 96 -216 53 -255
-40 -493 -232 -601 -93 -51 -172 -74 -309 -89 -69 -7 -393 -12 -411 -6 -10 3
-13 124 -13 561 l0 557 198 -2 c108 -1 219 -5 246 -8z m216 -2230 c89 -6 155
-14 240 -30 69 -13 102 -22 153 -42 180 -71 279 -194 314 -394 8 -43 7 -212
-1 -262 -16 -98 -74 -207 -146 -274 -35 -33 -190 -121 -190 -108 0 3 -6 2 -12
-4 -16 -12 -167 -49 -229 -56 -24 -3 -60 -8 -79 -11 -76 -11 -511 -21 -687
-16 l-23 1 0 598 c0 329 2 601 4 603 7 7 534 3 656 -5z"/>
<path d="M5298 5123 l-3 -2528 -347 0 c-191 0 -350 -3 -353 -7 -8 -7 -7 10 -6
-388 l1 -305 732 1 c403 1 736 2 741 3 4 0 7 134 7 297 l0 297 22 -29 c53 -68
144 -160 203 -205 17 -13 32 -26 35 -29 14 -17 217 -144 300 -187 206 -107
435 -178 650 -201 76 -8 434 -7 495 1 70 10 128 19 140 21 6 2 28 7 50 11 22
5 42 10 45 10 3 1 25 7 50 14 25 7 46 13 47 12 8 -2 173 64 249 99 401 190
762 585 947 1035 40 99 104 307 111 362 3 18 7 36 9 40 3 4 8 34 11 66 4 32 9
64 11 70 18 54 27 517 12 632 -5 33 -10 78 -13 100 -22 183 -98 441 -183 620
-42 89 -146 266 -180 307 -6 7 -34 42 -63 78 -130 162 -351 349 -533 451 -101
56 -294 139 -356 154 -13 2 -58 14 -99 25 -81 21 -98 24 -240 45 -90 13 -448
15 -510 2 -14 -2 -45 -8 -70 -11 -25 -4 -65 -12 -90 -18 -25 -5 -52 -11 -60
-13 -8 -1 -35 -9 -60 -16 -25 -7 -49 -14 -55 -15 -35 -9 -159 -60 -224 -90
-219 -105 -390 -230 -578 -423 l-73 -75 0 1157 0 1157 -385 0 -385 0 -2 -2527z
m2248 163 c28 -3 57 -8 65 -10 8 -3 25 -7 39 -10 104 -18 203 -52 310 -106 68
-34 197 -117 240 -156 99 -87 130 -118 184 -186 136 -169 222 -391 252 -648 8
-68 11 -360 4 -360 -3 0 -6 -17 -6 -38 -2 -69 -16 -151 -41 -247 -8 -33 -16
-64 -18 -70 -1 -5 -7 -23 -13 -38 -7 -16 -12 -33 -12 -38 0 -6 -11 -34 -24
-62 -13 -29 -30 -67 -37 -84 -8 -18 -17 -33 -21 -33 -5 0 -8 -5 -8 -11 0 -29
-124 -193 -210 -279 -90 -90 -216 -190 -239 -190 -6 0 -11 -4 -11 -8 0 -5 -19
-17 -42 -28 -24 -10 -49 -24 -56 -31 -7 -7 -20 -13 -28 -13 -8 0 -31 -8 -52
-19 -20 -10 -71 -28 -112 -39 -71 -20 -99 -26 -180 -39 -46 -7 -312 -11 -325
-4 -5 2 -22 6 -39 8 -131 14 -349 94 -448 164 -14 11 -31 19 -37 19 -6 0 -11
4 -11 8 0 4 -13 15 -29 25 -95 56 -341 313 -341 357 0 5 -4 10 -8 10 -5 0 -22
28 -38 63 -16 34 -32 64 -36 65 -5 2 -8 9 -8 16 0 7 -6 26 -14 42 -16 31 -61
180 -69 229 -3 17 -8 41 -11 55 -25 112 -25 471 0 594 2 12 7 37 10 56 3 19 7
43 10 52 3 9 7 26 9 37 11 48 14 59 40 131 76 209 195 378 359 512 12 10 28
24 36 31 39 36 180 123 258 159 164 76 240 98 402 114 30 3 56 7 57 8 5 4 195
-2 249 -8z"/>
</g>
</svg>
