<svg width="237" height="147" viewBox="0 0 237 147" fill="none" xmlns="http://www.w3.org/2000/svg">
<path d="M80.61 67.94C85.99 65.57 89.22 62.34 92.24 56.74C95.25 50.71 96.33 45.33 96.33 39.08C96.33 26.37 92.45 17.54 87.5 12.16C78.67 2.46996 66.39 0.959961 56.06 0.959961H0.5V144.6H60.37C78.03 144.6 91.6 139 99.35 131.03C104.73 125.65 109.9 116.38 109.9 102.82C109.9 91.41 106.02 82.15 100.21 76.55C95.69 72.24 88.15 68.8 80.62 67.93L80.61 67.94ZM37.75 29.61H44.64C51.96 29.61 56.48 31.55 58.85 33.91C61.01 36.28 62.3 39.94 62.3 43.6C62.3 46.83 61.22 50.71 58.85 53.07C54.98 57.16 48.51 57.59 44.64 57.59H37.75V29.6V29.61ZM69.19 109.72C65.1 114.46 56.49 115.54 46.15 115.54H37.75V85.39H45.5C54.76 85.39 64.02 85.6 68.54 90.13C70.7 92.28 72.2 95.94 72.2 100.47C72.2 104.56 70.91 107.79 69.18 109.73L69.19 109.72Z" fill="#f75b3f"/>
<path d="M222.73 55.94C213.39 46.46 201.82 41.72 188.03 41.72C174.24 41.72 161.59 47.37 151.74 58.68V0.77002H132.51V127.13H114.72V144.6H151.74V129.61C154.64 133.82 159.39 137.64 166.01 141.09C172.63 144.54 179.93 146.26 187.93 146.26C202.2 146.26 213.9 141.18 223.04 131.01C232.17 120.84 236.74 108.31 236.74 93.42C236.74 78.53 232.07 65.41 222.73 55.93V55.94ZM206.64 118.96C200.3 125.44 192.75 128.68 184 128.68C175.25 128.68 168.3 125.63 161.92 119.53C155.54 113.43 152.35 105.18 152.35 94.77C152.35 83.4 155.62 74.7 162.18 68.66C168.73 62.63 176.17 59.61 184.52 59.61C192.87 59.61 200.39 62.52 206.7 68.35C213.01 74.18 216.16 82.36 216.16 92.91C216.16 103.46 212.99 112.49 206.65 118.97L206.64 118.96Z" fill="#f75b3f"/>
</svg>
