<svg width="888" height="120" viewBox="0 0 888 120" fill="none" xmlns="http://www.w3.org/2000/svg">
<path d="M48.5498 117.03C62.8498 117.03 73.8298 112.5 80.1098 106.05C84.4698 101.69 88.6498 94.1901 88.6498 83.2001C88.6498 73.9601 85.5098 66.4601 80.7998 61.9301C77.1398 58.4401 71.0398 55.6501 64.9298 54.9501C69.2898 53.0301 71.8998 50.4201 74.3498 45.8801C76.7898 41.0001 77.6698 36.6401 77.6698 31.5801C77.6698 21.2901 74.5298 14.1401 70.5198 9.78006C63.3698 1.93006 53.4298 0.710056 45.0598 0.710056H0.0698242V117.03H48.5498ZM30.2398 23.9101H35.8198C41.7498 23.9101 45.4098 25.4801 47.3298 27.4001C49.0798 29.3201 50.1198 32.2801 50.1198 35.2501C50.1198 37.8701 49.2498 41.0001 47.3298 42.9201C44.1898 46.2401 38.9598 46.5801 35.8198 46.5801H30.2398V23.9101ZM30.2398 69.0801H36.5198C44.0198 69.0801 51.5198 69.2501 55.1798 72.9201C56.9298 74.6601 58.1498 77.6301 58.1498 81.2901C58.1498 84.6001 57.0998 87.2201 55.7098 88.7901C52.3998 92.6301 45.4198 93.5001 37.0498 93.5001H30.2498V69.0901L30.2398 69.0801ZM106.29 0.720058V117.04H136.46V72.4001L165.41 117.04H202.9L166.45 69.4301C171.86 68.3801 177.96 65.7701 182.5 61.4101C188.25 55.8301 191.74 47.1101 191.74 37.1701C191.74 27.9301 188.42 17.8101 181.8 11.0101C173.25 2.12006 162.09 0.720058 153.38 0.720058H106.29ZM136.45 24.0901H142.21C148.83 24.0901 153.89 25.8301 156.68 28.6201C159.29 31.0601 160.69 34.9001 160.69 38.3901C160.69 42.0501 159.12 45.8901 156.85 48.1501C153.19 51.6401 146.74 52.8601 142.2 52.8601H136.44V24.0901H136.45ZM297.85 117.03H330.11L286.34 0.710056H253.38L208.74 117.03H240.65L248.5 97.5001H290.7L297.85 117.03ZM256.87 74.4801L269.6 36.8101L282.68 74.4801H256.87ZM341.33 0.720058V117.04H371.5V0.720058H341.33ZM425.56 117.03V45.8801L481.19 117.03H511.36V0.720058H481.19V71.8701L425.56 0.720058H395.39V117.04H425.56V117.03ZM703.04 102.88V65.3701C703.04 58.7801 702.66 53.9801 701.91 50.9701C701.15 47.9601 699.69 45.1501 697.51 42.5501C695.33 39.9501 692.03 37.8301 687.59 36.1901C683.15 34.5401 677.89 33.7201 671.81 33.7201C655.23 33.7201 643.56 40.0301 636.81 52.6401L652.05 56.6601C655.62 50.3001 661.4 47.1101 669.38 47.1101C674.01 47.1101 677.77 48.0001 680.64 49.7901C683.51 51.5801 685.34 53.5801 686.12 55.8201C686.9 58.0501 687.29 61.2401 687.29 65.3701V73.4101C680.2 68.8301 672.86 66.5401 665.27 66.5401C657.12 66.5401 650.16 69.0201 644.38 73.9901C638.6 78.9601 635.71 85.2101 635.71 92.7501C635.71 100.29 638.43 106.37 643.87 111.17C649.31 115.97 655.72 118.37 663.09 118.37C672.58 118.37 681.18 114.63 688.88 107.15V117.03H716.68V102.88H703.03H703.04ZM687.3 96.3501C680.43 102.82 673.15 106.06 665.45 106.06C660.98 106.06 657.45 104.78 654.86 102.21C652.26 99.6401 650.97 96.4601 650.97 92.6601C650.97 88.5801 652.45 85.2601 655.41 82.6901C658.37 80.1201 662.05 78.8401 666.46 78.8401C673.49 78.8401 680.44 81.5201 687.31 86.8801V96.3401L687.3 96.3501ZM739.87 117.03V112.47C745.34 116.4 752.4 118.37 761.05 118.37C770.26 118.37 777.76 116.15 783.53 111.71C789.31 107.27 792.2 101.28 792.2 93.7401C792.2 88.66 790.87 84.2101 788.22 80.3801C785.57 76.5601 782.23 73.8201 778.21 72.1701C774.19 70.5201 768.25 69.0901 760.38 67.8701C752.17 66.5901 746.83 65.3801 744.34 64.2301C741.86 63.0901 740.61 60.9801 740.61 57.9101C740.61 54.8401 741.96 52.4801 744.67 50.6701C747.38 48.8601 750.83 47.9501 755.01 47.9501C763.22 47.9501 769.47 51.2701 773.77 57.9101V62.8501H787.92V35.9701H773.77V39.4401C768.25 36.2901 761.66 34.7201 754.01 34.7201C745.53 34.7201 738.69 37.0001 733.5 41.5501C728.31 46.1001 725.71 51.7601 725.71 58.5201C725.71 65.2801 728.09 70.6901 732.87 74.9001C737.64 79.1201 745.61 82.1701 756.78 84.0501C764.32 85.2701 769.36 86.6101 771.9 88.0601C774.44 89.5101 775.71 91.7701 775.71 94.8401C775.71 97.9101 774.17 100.51 771.1 102.29C768.03 104.08 763.93 104.97 758.79 104.97C753.65 104.97 749.62 103.74 746.02 101.29C742.42 98.8301 740.37 95.7101 739.87 91.9101V89.2301H725.64V117.03H739.87ZM874.01 45.4801C865.16 37.6401 855.3 33.7201 844.41 33.7201C833.52 33.7201 823.46 37.7401 814.89 45.7801C806.32 53.8201 802.04 64.0601 802.04 76.5101C802.04 89.6301 806.44 100.05 815.23 107.78C824.02 115.51 834.61 119.38 847.01 119.38C854.99 119.38 862.64 117.66 869.96 114.23C877.27 110.8 883.22 105.54 887.79 98.4501L873.72 92.2501C867.24 101.18 858.45 105.65 847.34 105.65C839.69 105.65 833.41 103.33 828.5 98.7001C823.59 94.0701 820.63 88.0101 819.62 80.5301H887.78C887.45 65.0101 882.85 53.3301 874.01 45.4901V45.4801ZM820.21 68.9701C821.21 62.3801 823.98 57.0101 828.5 52.8501C833.02 48.6901 838.47 46.6101 844.83 46.6101C851.81 46.6101 857.69 48.9101 862.5 53.5201C867.3 58.1301 870.26 63.2801 871.38 68.9701H820.22H820.21ZM624.56 75.5901C624.56 87.6501 620.86 97.7901 613.46 106.03C606.06 114.26 596.59 118.38 585.03 118.38C578.55 118.38 572.64 116.99 567.28 114.19C561.92 111.4 558.07 108.3 555.72 104.9V117.04H525.74V102.89H540.14V0.560059H555.71V47.4501C563.69 38.3001 573.49 33.7201 585.1 33.7201C596.71 33.7201 605.63 37.5601 613.19 45.2301C620.75 52.9101 624.54 63.0201 624.54 75.5801L624.56 75.5901ZM607.9 75.1701C607.9 66.6301 605.35 60.0001 600.24 55.2801C595.13 50.5601 589.14 48.2001 582.28 48.2001C575.42 48.2001 569.5 50.6401 564.19 55.5301C558.89 60.4201 556.23 67.4601 556.23 76.6701C556.23 85.1001 558.81 91.7801 563.98 96.7201C569.14 101.66 575.1 104.13 581.86 104.13C588.95 104.13 595.06 101.51 600.2 96.2601C605.34 91.0101 607.9 83.9801 607.9 75.1601V75.1701Z" fill="currentColor"/>
</svg>
