<svg fill="currentColor" xmlns="http://www.w3.org/2000/svg" viewBox="0 0 1000 1000">
  <path class="cls-1" d="M788.8,511.9h-52.66c-.22-2.67-.41-4.94-.65-7.86,2.57,0,4.67,0,6.78,0,34.66.13,69.32.26,103.99.39,2.13,0,4.55-.5,4.42,3.01-.11,3.08-1.89,3.83-4.58,3.91-14.64.39-29.28,1.14-43.91,1.11-4.74,0-5.07,1.86-5.06,5.55.05,39.33-.01,78.67-.02,118-.01,42.5-.13,85,.12,127.5.04,6.98-2.07,11.92-7.59,16.21-9.84,7.65-19.07,16.09-28.9,23.77-17.44,13.62-36.33,25.03-55.97,35.19-21.26,11-43.37,19.9-66.37,26.62-46.89,13.7-94.67,18.6-143.22,13.42-46.48-4.95-91.24-16.73-132.68-38.88-15.66-8.37-30.08-19.04-45.47-27.98-19.49-11.32-35.76-26.49-51.38-42.29-17.75-17.95-33.91-37.35-47.96-58.43-16.21-24.34-29.38-50.19-39.07-77.77-4.18-11.89-8.58-23.8-11.42-36.04-3.84-16.52-6.72-33.3-9.2-50.09-3.17-21.45-3.45-43.07-2.06-64.74,1.98-31.02,7.48-61.29,16.81-90.98,8.54-27.18,19.95-53,34.45-77.45,21.4-36.08,47.86-68.01,79.76-95.28,18.41-15.73,38.06-29.76,59.2-41.67,28.06-15.82,57.47-28.39,88.65-36.52,12.52-3.27,25.2-6.3,38-8.1,34.13-4.8,68.38-6.45,102.8-2.34,51.95,6.2,100.67,22.04,145.96,48.13,29.24,16.85,55.91,37.2,79.67,61.24,15.89,16.08,29.97,33.68,42.86,52.23,1.41,2.03,3.02,4.18,3.55,6.5.36,1.59-.99,3.57-1.57,5.38-1.64-.67-4.05-.86-4.81-2.08-9.9-15.99-21.85-30.41-34.34-44.36-14.8-16.53-30.59-32.16-48.86-44.85-17.41-12.09-34.82-24.45-53.41-34.51-20.77-11.24-42.73-20.5-65.74-26.41-18.95-4.86-38.02-9.59-57.32-12.63-25.69-4.05-51.64-3.62-77.66-1.91-38.24,2.51-74.71,11.95-110.25,25.54-10.62,4.06-20.79,9.32-31.02,14.33-7.78,3.81-15.65,7.61-22.91,12.29-10.61,6.84-20.91,14.21-30.98,21.82-10.23,7.73-21.1,15.03-29.8,24.29-16.24,17.28-31.89,35.24-46.36,54.02-19.85,25.75-34.19,54.79-45.81,85.09-10.45,27.25-17.35,55.45-20.68,84.45-1.37,11.94-2.34,23.94-3.02,35.95-.46,8.07-.73,16.25.03,24.27,1.62,17.02,2.91,34.19,6.31,50.89,4.02,19.8,9.59,39.33,15.46,58.68,6.22,20.52,16.29,39.43,26.87,58.03,19.41,34.1,43.29,64.74,72.5,90.93,31.53,28.27,66.78,50.85,106.14,66.85,22.96,9.33,46.62,16.27,70.78,21.61,31.56,6.97,63.55,7.08,95.59,5.76,11.2-.46,22.55-.78,33.49-2.94,26.7-5.26,53.18-11.69,78.48-22.01,13.17-5.37,26.7-10.31,38.97-17.36,18.87-10.83,37.55-22.17,54.31-36.28,7.88-6.64,16.05-12.94,23.74-19.79,1.82-1.62,3.09-4.8,3.13-7.29.28-15.16.13-30.33.13-45.5,0-67.83.02-135.66.02-203.5,0-1.47-.14-2.93-.25-5.13Z"/>
  <path class="cls-1" d="M433.05,392.37c-12.13,15.57-24.22,31.18-36.4,46.7-7.88,10.04-16.01,19.88-23.84,29.97-4.73,6.09-8.95,12.58-13.65,18.69-3.86,5.01-8.01,9.8-12.19,14.54-2.37,2.7-4.16,1.1-5.76-1.17-5.8-8.23-11.45-16.57-17.51-24.61-14.79-19.63-29.79-39.09-44.68-58.64-11.53-15.14-23.03-30.32-34.53-45.49-.86-1.14-1.61-2.37-2.55-3.75,6.33-2.01,10.29.1,13.91,4.93,25.43,33.96,51.06,67.77,76.61,101.64,4.16,5.51,8.22,11.1,12.86,17.37,32.47-41.54,64.69-82.76,97.4-124.61v271.61h-8.51v-246.88c-.39-.11-.78-.21-1.17-.32Z"/>
  <path class="cls-1" d="M426.64,639.77c-6.68,1.39-10.49-.78-13.76-5.35-6.69-9.35-13.87-18.34-20.7-27.6-4.64-6.29-8.95-12.82-13.52-19.17-5.63-7.82-11.31-15.61-17.08-23.32-7.42-9.91-14.97-19.72-22.44-29.59-7.1-9.38-14.26-18.72-21.23-28.2-8.88-12.07-17.49-24.35-26.44-36.38-9.57-12.85-19.5-25.43-29.08-38.27-11.61-15.56-23-31.29-34.52-46.92-.85-1.16-1.96-2.12-3.82-4.12v258.95h-8.21c0-2.43,0-4.86,0-7.29-.07-78.66-.14-157.33-.22-235.99,0-8-.21-15.99,0-23.98.05-1.85,1.43-3.66,2.2-5.49,2.17.97,5,1.38,6.4,3.02,4.86,5.67,9.27,11.74,13.77,17.71,30.44,40.39,60.92,80.75,91.28,121.2,31.45,41.9,62.78,83.89,94.15,125.85,1.05,1.4,1.93,2.93,3.24,4.94Z"/>
  <path class="cls-1" d="M608.15,517.75v121.99h-7.35v-136.19c.42-.42.84-.85,1.26-1.27,2.89,1.77,6.57,2.92,8.54,5.42,17.39,22.03,34.42,44.35,51.67,66.49,13.33,17.11,26.84,34.09,40.29,51.1.67.85,1.58,1.51,3.35,3.16v-124.22h8.2c0,2.56,0,4.83,0,7.1,0,39.66-.01,79.33-.02,118.99,0,7.13-1.58,9.58-6.08,8.7-1.72-.34-3.58-1.74-4.7-3.19-14.36-18.69-28.43-37.6-42.92-56.19-11.43-14.66-23.37-28.93-35-43.44-4.05-5.06-7.8-10.36-11.81-15.46-1.13-1.44-2.68-2.54-4.03-3.8l-1.39.81Z"/>
  <path class="cls-1" d="M464.81,639.75v-135.28h114.06c.62,6.23-.22,7.22-6.49,7.26-31.32.17-62.65.27-93.97.39-1.79,0-3.58,0-5.51,0-.18,1.79-.4,2.92-.39,4.05.08,15.66.3,31.32.23,46.98-.02,3.73,1.14,4.86,4.85,4.81,14.64-.19,29.28-.08,43.72-.08,1.48,6.38.99,7.47-4.56,7.64-12.65.39-25.31.4-37.96.56-1.65.02-3.3,0-5.68,0v55.62c1.5.08,2.95.22,4.41.22,32.16.08,64.32.12,96.47.27,1.62,0,4.23.59,4.65,1.62,1.03,2.5,1.03,5.44-2.98,5.73-2.32.17-4.65.28-6.98.29-33.66.07-67.32.11-100.97.15-.66,0-1.31-.11-2.89-.24Z"/>
  <path class="cls-1" d="M521.46,369.82c27.63-2.69,57.04,23.52,56.36,57-.61,30.02-28.25,56.59-58.44,54.79-29.71-1.77-54.88-25.34-54.6-57.26.25-28.57,25.33-56.94,56.68-54.53ZM520.19,473.79c25.35.45,49.26-19.71,49.73-46.73.52-30.42-20.42-50.11-49.17-50.41-26.26-.28-47.71,18.81-48.21,48.04-.41,24.49,17.44,47.66,47.65,49.09Z"/>
</svg>